<svg width="401" height="95" viewBox="0 0 401 95" fill="none" xmlns="http://www.w3.org/2000/svg">
<rect width="401" height="95" rx="10" fill="#333333"/>
<path d="M93.3145 57V35.5254H100.712C102.382 35.5254 103.656 35.6279 104.535 35.833C105.766 36.1162 106.815 36.6289 107.685 37.3711C108.817 38.3281 109.662 39.5537 110.219 41.0479C110.785 42.5322 111.068 44.2314 111.068 46.1455C111.068 47.7764 110.878 49.2217 110.497 50.4814C110.116 51.7412 109.628 52.7861 109.032 53.6162C108.437 54.4365 107.782 55.0859 107.069 55.5645C106.366 56.0332 105.512 56.3896 104.506 56.6338C103.51 56.8779 102.362 57 101.063 57H93.3145ZM96.1562 54.4658H100.741C102.157 54.4658 103.266 54.334 104.066 54.0703C104.877 53.8066 105.521 53.4355 106 52.957C106.674 52.2832 107.196 51.3799 107.567 50.2471C107.948 49.1045 108.139 47.7227 108.139 46.1016C108.139 43.8555 107.768 42.1318 107.025 40.9307C106.293 39.7197 105.399 38.9092 104.345 38.499C103.583 38.2061 102.357 38.0596 100.668 38.0596H96.1562V54.4658ZM113.676 49.2217C113.676 46.3408 114.477 44.207 116.078 42.8203C117.416 41.668 119.047 41.0918 120.971 41.0918C123.109 41.0918 124.857 41.7949 126.215 43.2012C127.572 44.5977 128.251 46.5312 128.251 49.002C128.251 51.0039 127.948 52.5811 127.343 53.7334C126.747 54.876 125.873 55.7646 124.721 56.3994C123.578 57.0342 122.328 57.3516 120.971 57.3516C118.793 57.3516 117.03 56.6533 115.683 55.2568C114.345 53.8604 113.676 51.8486 113.676 49.2217ZM116.386 49.2217C116.386 51.2139 116.82 52.708 117.689 53.7041C118.559 54.6904 119.652 55.1836 120.971 55.1836C122.279 55.1836 123.368 54.6855 124.237 53.6895C125.106 52.6934 125.541 51.1748 125.541 49.1338C125.541 47.21 125.102 45.7549 124.223 44.7686C123.354 43.7725 122.27 43.2744 120.971 43.2744C119.652 43.2744 118.559 43.7676 117.689 44.7539C116.82 45.7402 116.386 47.2295 116.386 49.2217ZM134.228 57L129.467 41.4434H132.191L134.667 50.4229L135.59 53.7627C135.629 53.5967 135.897 52.5273 136.396 50.5547L138.871 41.4434H141.581L143.91 50.4668L144.687 53.4404L145.58 50.4375L148.246 41.4434H150.81L145.946 57H143.207L140.731 47.6836L140.131 45.0322L136.981 57H134.228ZM153.036 57V41.4434H155.409V43.6553C156.552 41.9463 158.202 41.0918 160.36 41.0918C161.298 41.0918 162.157 41.2627 162.938 41.6045C163.729 41.9365 164.32 42.376 164.711 42.9229C165.102 43.4697 165.375 44.1191 165.531 44.8711C165.629 45.3594 165.678 46.2139 165.678 47.4346V57H163.041V47.5371C163.041 46.4629 162.938 45.6621 162.733 45.1348C162.528 44.5977 162.162 44.1729 161.635 43.8604C161.117 43.5381 160.507 43.377 159.804 43.377C158.681 43.377 157.709 43.7334 156.889 44.4463C156.078 45.1592 155.673 46.5117 155.673 48.5039V57H153.036ZM169.677 57V35.5254H172.313V57H169.677ZM175.434 49.2217C175.434 46.3408 176.234 44.207 177.836 42.8203C179.174 41.668 180.805 41.0918 182.729 41.0918C184.867 41.0918 186.615 41.7949 187.973 43.2012C189.33 44.5977 190.009 46.5312 190.009 49.002C190.009 51.0039 189.706 52.5811 189.101 53.7334C188.505 54.876 187.631 55.7646 186.479 56.3994C185.336 57.0342 184.086 57.3516 182.729 57.3516C180.551 57.3516 178.788 56.6533 177.44 55.2568C176.103 53.8604 175.434 51.8486 175.434 49.2217ZM178.144 49.2217C178.144 51.2139 178.578 52.708 179.447 53.7041C180.316 54.6904 181.41 55.1836 182.729 55.1836C184.037 55.1836 185.126 54.6855 185.995 53.6895C186.864 52.6934 187.299 51.1748 187.299 49.1338C187.299 47.21 186.859 45.7549 185.98 44.7686C185.111 43.7725 184.027 43.2744 182.729 43.2744C181.41 43.2744 180.316 43.7676 179.447 44.7539C178.578 45.7402 178.144 47.2295 178.144 49.2217ZM203.266 55.0811C202.289 55.9111 201.347 56.4971 200.438 56.8389C199.54 57.1807 198.573 57.3516 197.538 57.3516C195.829 57.3516 194.516 56.9365 193.598 56.1064C192.68 55.2666 192.221 54.1973 192.221 52.8984C192.221 52.1367 192.392 51.4434 192.733 50.8184C193.085 50.1836 193.539 49.6758 194.096 49.2949C194.662 48.9141 195.297 48.626 196 48.4307C196.518 48.2939 197.299 48.1621 198.344 48.0352C200.473 47.7812 202.04 47.4785 203.046 47.127C203.056 46.7656 203.061 46.5361 203.061 46.4385C203.061 45.3643 202.812 44.6074 202.313 44.168C201.64 43.5723 200.639 43.2744 199.311 43.2744C198.07 43.2744 197.152 43.4941 196.557 43.9336C195.971 44.3633 195.536 45.1299 195.253 46.2334L192.675 45.8818C192.909 44.7783 193.295 43.8896 193.832 43.2158C194.369 42.5322 195.146 42.0098 196.161 41.6484C197.177 41.2773 198.354 41.0918 199.691 41.0918C201.02 41.0918 202.099 41.248 202.929 41.5605C203.759 41.873 204.369 42.2686 204.76 42.7471C205.15 43.2158 205.424 43.8115 205.58 44.5342C205.668 44.9834 205.712 45.7939 205.712 46.9658V50.4814C205.712 52.9326 205.766 54.4854 205.873 55.1396C205.99 55.7842 206.215 56.4043 206.547 57H203.793C203.52 56.4531 203.344 55.8135 203.266 55.0811ZM203.046 49.1924C202.089 49.583 200.653 49.915 198.739 50.1885C197.655 50.3447 196.889 50.5205 196.439 50.7158C195.99 50.9111 195.644 51.1992 195.399 51.5801C195.155 51.9512 195.033 52.3662 195.033 52.8252C195.033 53.5283 195.297 54.1143 195.824 54.583C196.361 55.0518 197.143 55.2861 198.168 55.2861C199.184 55.2861 200.087 55.0664 200.878 54.627C201.669 54.1777 202.25 53.5674 202.621 52.7959C202.904 52.2002 203.046 51.3213 203.046 50.1592V49.1924ZM219.906 57V55.0371C218.92 56.5801 217.47 57.3516 215.556 57.3516C214.315 57.3516 213.173 57.0098 212.128 56.3262C211.093 55.6426 210.287 54.6904 209.711 53.4697C209.145 52.2393 208.861 50.8281 208.861 49.2363C208.861 47.6836 209.12 46.2773 209.638 45.0176C210.155 43.748 210.932 42.7764 211.967 42.1025C213.002 41.4287 214.159 41.0918 215.438 41.0918C216.376 41.0918 217.211 41.292 217.943 41.6924C218.676 42.083 219.271 42.5957 219.73 43.2305V35.5254H222.353V57H219.906ZM211.571 49.2363C211.571 51.2285 211.991 52.7178 212.831 53.7041C213.671 54.6904 214.662 55.1836 215.805 55.1836C216.957 55.1836 217.934 54.7148 218.734 53.7773C219.545 52.8301 219.95 51.3896 219.95 49.4561C219.95 47.3271 219.54 45.7646 218.72 44.7686C217.899 43.7725 216.889 43.2744 215.688 43.2744C214.516 43.2744 213.534 43.7529 212.743 44.71C211.962 45.667 211.571 47.1758 211.571 49.2363ZM235.492 57V43.4941H233.163V41.4434H235.492V39.7881C235.492 38.7432 235.585 37.9668 235.771 37.459C236.024 36.7754 236.469 36.2236 237.104 35.8037C237.748 35.374 238.646 35.1592 239.799 35.1592C240.541 35.1592 241.361 35.2471 242.26 35.4229L241.864 37.7227C241.317 37.625 240.8 37.5762 240.312 37.5762C239.511 37.5762 238.944 37.7471 238.612 38.0889C238.28 38.4307 238.114 39.0703 238.114 40.0078V41.4434H241.146V43.4941H238.114V57H235.492ZM242.23 49.2217C242.23 46.3408 243.031 44.207 244.633 42.8203C245.971 41.668 247.602 41.0918 249.525 41.0918C251.664 41.0918 253.412 41.7949 254.77 43.2012C256.127 44.5977 256.806 46.5312 256.806 49.002C256.806 51.0039 256.503 52.5811 255.897 53.7334C255.302 54.876 254.428 55.7646 253.275 56.3994C252.133 57.0342 250.883 57.3516 249.525 57.3516C247.348 57.3516 245.585 56.6533 244.237 55.2568C242.899 53.8604 242.23 51.8486 242.23 49.2217ZM244.94 49.2217C244.94 51.2139 245.375 52.708 246.244 53.7041C247.113 54.6904 248.207 55.1836 249.525 55.1836C250.834 55.1836 251.923 54.6855 252.792 53.6895C253.661 52.6934 254.096 51.1748 254.096 49.1338C254.096 47.21 253.656 45.7549 252.777 44.7686C251.908 43.7725 250.824 43.2744 249.525 43.2744C248.207 43.2744 247.113 43.7676 246.244 44.7539C245.375 45.7402 244.94 47.2295 244.94 49.2217ZM259.882 57V41.4434H262.255V43.8018C262.86 42.6982 263.417 41.9707 263.925 41.6191C264.442 41.2676 265.009 41.0918 265.624 41.0918C266.513 41.0918 267.416 41.375 268.334 41.9414L267.426 44.3877C266.781 44.0068 266.137 43.8164 265.492 43.8164C264.916 43.8164 264.398 43.9922 263.939 44.3438C263.48 44.6855 263.153 45.1641 262.958 45.7793C262.665 46.7168 262.519 47.7422 262.519 48.8555V57H259.882ZM274.56 57L282.807 35.5254H285.868L294.657 57H291.42L288.915 50.4961H279.936L277.577 57H274.56ZM280.756 48.1816H288.036L285.795 42.2344C285.111 40.4277 284.604 38.9434 284.271 37.7812C283.998 39.1582 283.612 40.5254 283.114 41.8828L280.756 48.1816ZM296.591 57V41.4434H298.964V43.6553C300.106 41.9463 301.757 41.0918 303.915 41.0918C304.853 41.0918 305.712 41.2627 306.493 41.6045C307.284 41.9365 307.875 42.376 308.266 42.9229C308.656 43.4697 308.93 44.1191 309.086 44.8711C309.184 45.3594 309.232 46.2139 309.232 47.4346V57H306.596V47.5371C306.596 46.4629 306.493 45.6621 306.288 45.1348C306.083 44.5977 305.717 44.1729 305.189 43.8604C304.672 43.5381 304.062 43.377 303.358 43.377C302.235 43.377 301.264 43.7334 300.443 44.4463C299.633 45.1592 299.228 46.5117 299.228 48.5039V57H296.591ZM323.383 57V55.0371C322.396 56.5801 320.946 57.3516 319.032 57.3516C317.792 57.3516 316.649 57.0098 315.604 56.3262C314.569 55.6426 313.764 54.6904 313.188 53.4697C312.621 52.2393 312.338 50.8281 312.338 49.2363C312.338 47.6836 312.597 46.2773 313.114 45.0176C313.632 43.748 314.408 42.7764 315.443 42.1025C316.479 41.4287 317.636 41.0918 318.915 41.0918C319.853 41.0918 320.688 41.292 321.42 41.6924C322.152 42.083 322.748 42.5957 323.207 43.2305V35.5254H325.829V57H323.383ZM315.048 49.2363C315.048 51.2285 315.468 52.7178 316.308 53.7041C317.147 54.6904 318.139 55.1836 319.281 55.1836C320.434 55.1836 321.41 54.7148 322.211 53.7773C323.021 52.8301 323.427 51.3896 323.427 49.4561C323.427 47.3271 323.017 45.7646 322.196 44.7686C321.376 43.7725 320.365 43.2744 319.164 43.2744C317.992 43.2744 317.011 43.7529 316.22 44.71C315.438 45.667 315.048 47.1758 315.048 49.2363ZM329.96 57V41.4434H332.333V43.8018C332.938 42.6982 333.495 41.9707 334.003 41.6191C334.521 41.2676 335.087 41.0918 335.702 41.0918C336.591 41.0918 337.494 41.375 338.412 41.9414L337.504 44.3877C336.859 44.0068 336.215 43.8164 335.57 43.8164C334.994 43.8164 334.477 43.9922 334.018 44.3438C333.559 44.6855 333.231 45.1641 333.036 45.7793C332.743 46.7168 332.597 47.7422 332.597 48.8555V57H329.96ZM338.998 49.2217C338.998 46.3408 339.799 44.207 341.4 42.8203C342.738 41.668 344.369 41.0918 346.293 41.0918C348.432 41.0918 350.18 41.7949 351.537 43.2012C352.895 44.5977 353.573 46.5312 353.573 49.002C353.573 51.0039 353.271 52.5811 352.665 53.7334C352.069 54.876 351.195 55.7646 350.043 56.3994C348.9 57.0342 347.65 57.3516 346.293 57.3516C344.115 57.3516 342.353 56.6533 341.005 55.2568C339.667 53.8604 338.998 51.8486 338.998 49.2217ZM341.708 49.2217C341.708 51.2139 342.143 52.708 343.012 53.7041C343.881 54.6904 344.975 55.1836 346.293 55.1836C347.602 55.1836 348.69 54.6855 349.56 53.6895C350.429 52.6934 350.863 51.1748 350.863 49.1338C350.863 47.21 350.424 45.7549 349.545 44.7686C348.676 43.7725 347.592 43.2744 346.293 43.2744C344.975 43.2744 343.881 43.7676 343.012 44.7539C342.143 45.7402 341.708 47.2295 341.708 49.2217ZM356.693 38.5576V35.5254H359.33V38.5576H356.693ZM356.693 57V41.4434H359.33V57H356.693ZM373.451 57V55.0371C372.465 56.5801 371.015 57.3516 369.101 57.3516C367.86 57.3516 366.718 57.0098 365.673 56.3262C364.638 55.6426 363.832 54.6904 363.256 53.4697C362.689 52.2393 362.406 50.8281 362.406 49.2363C362.406 47.6836 362.665 46.2773 363.183 45.0176C363.7 43.748 364.477 42.7764 365.512 42.1025C366.547 41.4287 367.704 41.0918 368.983 41.0918C369.921 41.0918 370.756 41.292 371.488 41.6924C372.221 42.083 372.816 42.5957 373.275 43.2305V35.5254H375.897V57H373.451ZM365.116 49.2363C365.116 51.2285 365.536 52.7178 366.376 53.7041C367.216 54.6904 368.207 55.1836 369.35 55.1836C370.502 55.1836 371.479 54.7148 372.279 53.7773C373.09 52.8301 373.495 51.3896 373.495 49.4561C373.495 47.3271 373.085 45.7646 372.265 44.7686C371.444 43.7725 370.434 43.2744 369.232 43.2744C368.061 43.2744 367.079 43.7529 366.288 44.71C365.507 45.667 365.116 47.1758 365.116 49.2363Z" fill="white"/>
<path d="M28.4259 36.967H28.2847C26.4753 36.967 25 38.447 25 40.2518V54.5529C25 56.3647 26.4753 57.8399 28.2847 57.8399H28.4283C30.2377 57.8399 31.713 56.3599 31.713 54.5529V40.2517C31.7106 38.447 30.233 36.967 28.4259 36.967Z" fill="white"/>
<path d="M33.2842 60.0729C33.2842 61.7341 34.6418 63.087 36.303 63.087H39.5289V70.8117C39.5289 72.6258 41.0089 74.1011 42.8136 74.1011H42.9548C44.7666 74.1011 46.2442 72.6235 46.2442 70.8117V63.087H50.7524V70.8117C50.7524 72.6258 52.2371 74.1011 54.0419 74.1011H54.1807C55.9924 74.1011 57.4677 72.6235 57.4677 70.8117V63.087H60.696C62.3547 63.087 63.7124 61.7341 63.7124 60.0729V37.4917H33.2842V60.0729Z" fill="white"/>
<path d="M56.0767 23.7976L58.6391 19.8424C58.8038 19.5929 58.7309 19.2518 58.4791 19.0894C58.2298 18.9247 57.8885 18.993 57.7261 19.2494L55.0697 23.3412C53.0768 22.5248 50.8509 22.066 48.5003 22.066C46.1473 22.066 43.9261 22.5248 41.9285 23.3412L39.2768 19.2494C39.1145 18.993 38.7709 18.9247 38.5191 19.0894C38.2674 19.2517 38.1944 19.5929 38.3591 19.8424L40.9238 23.7976C36.3002 26.0635 33.1826 30.3341 33.1826 35.2329C33.1826 35.5341 33.2015 35.8306 33.2273 36.1246H63.7755C63.8013 35.8306 63.8178 35.5341 63.8178 35.2329C63.8179 30.3341 60.6979 26.0635 56.0767 23.7976ZM41.4179 30.88C40.6062 30.88 39.9473 30.2258 39.9473 29.4118C39.9473 28.5977 40.6062 27.9458 41.4179 27.9458C42.2344 27.9458 42.8885 28.5976 42.8885 29.4118C42.8885 30.2259 42.2297 30.88 41.4179 30.88ZM55.5803 30.88C54.7685 30.88 54.1097 30.2258 54.1097 29.4118C54.1097 28.5977 54.7685 27.9458 55.5803 27.9458C56.3944 27.9458 57.0485 28.5976 57.0485 29.4118C57.0485 30.2258 56.3944 30.88 55.5803 30.88Z" fill="white"/>
<path d="M68.712 36.967H68.5755C66.7661 36.967 65.2861 38.447 65.2861 40.2518V54.5529C65.2861 56.3647 66.7685 57.8399 68.5755 57.8399H68.7144C70.5261 57.8399 71.9991 56.3599 71.9991 54.5529V40.2517C71.9991 38.447 70.5214 36.967 68.712 36.967Z" fill="white"/>
</svg>
