<svg width="384" height="98" viewBox="0 0 384 98" fill="none" xmlns="http://www.w3.org/2000/svg">
<path d="M44.9962 57.6274C44.9962 62.707 41.407 66.8232 37.03 66.8232H29.0199V37.2651C29.0199 32.0542 32.6091 27.7628 37.03 27.7628H44.9962V57.5836V57.6274ZM19.6092 64.2396H13.5689V45.2349C13.5689 41.2938 16.2827 38.0533 19.6092 38.0533H25.6058V58.0215C25.2994 61.5246 22.717 64.2396 19.6092 64.2396ZM6.47805 61.4808H1.92591V51.453C1.92591 48.4753 3.93936 46.0669 6.47805 46.0669H10.9864V57.0143C10.68 59.5541 8.7979 61.5246 6.47805 61.5246V61.4808ZM36.9862 24.3472C31.2522 24.3472 26.525 29.164 25.7371 35.426H19.6092C15.1884 35.426 11.5117 39.2357 11.0302 44.0963H6.47805C2.93263 44.0963 0 47.3806 0 51.4092V63.3638H6.47805C8.22888 63.3638 9.80462 62.5756 10.9864 61.3495V66.7794H19.6092C21.9291 66.7794 24.0738 65.7285 25.6058 64.0644V70.1512H36.9862C43.2454 70.1512 48.3665 64.5023 48.3665 57.5836V24.3472H36.9862Z" fill="#43ADC8"/>
<path d="M2.01557 37.7905C2.01557 34.9004 4.02902 32.5358 6.56771 32.5358H11.0761V32.6671V34.988C11.0761 37.7905 9.06263 40.1114 6.56771 40.1114H2.01557V37.7905ZM13.6148 27.0183C13.6148 23.1648 16.3285 20.0119 19.6551 20.0119H25.6954V23.2523C25.6954 27.0183 22.9817 30.0835 19.6551 30.0835H13.6148V27.0183ZM29.0658 12.6114C29.0658 7.53183 32.655 3.37181 37.032 3.37181H44.9983V7.6632C44.9983 12.6114 41.4528 16.6401 37.032 16.6401H29.0658V12.5676V12.6114ZM13.002 34.988V32.6671H19.6551C24.3823 32.6671 28.2341 28.4633 28.2341 23.2961V20.0557H37.032C43.2912 20.0557 48.3686 14.4944 48.3686 7.6632V0H37.032C30.7728 0 25.6954 5.64887 25.6954 12.6114V17.4721H19.6551C14.9279 17.4721 11.0323 21.7635 11.0323 27.0183V30.609H6.52394C2.97853 30.609 0.0458984 33.8494 0.0458984 37.7905V42.0381H6.52394C10.0694 42.0381 12.9582 38.8853 12.9582 34.988H13.002Z" fill="#43ADC8"/>
<path d="M160.288 42.3006C160.288 55.5689 171.056 66.5163 184.274 66.779H184.887H196.837V63.1445C196.793 61.3053 195.217 59.8165 193.379 59.8165H184.8C175.126 59.8165 167.248 51.9343 167.248 42.2568V41.6437C167.248 31.9662 175.126 24.0841 184.8 24.0841H193.379C195.261 24.0841 196.837 22.5514 196.837 20.7122V17.1653H184.756C171.275 17.1653 160.288 28.1565 160.288 41.6875V42.3006Z" fill="#545456"/>
<path d="M325.523 17.0342H322.065C320.139 17.0342 318.607 18.6107 318.607 20.5812V66.2977H322.065C323.991 66.2977 325.523 64.7212 325.523 62.8383V17.0342Z" fill="#545456"/>
<path d="M325.523 2.23322H322.065C320.139 2.23322 318.607 3.80964 318.607 5.78018V7.66314H322.065C323.991 7.66314 325.523 6.08671 325.523 4.20375V2.27701V2.23322Z" fill="#545456"/>
<path d="M156.436 17.078L147.157 17.1656C134.507 18.0414 124.571 28.6823 124.571 41.3813V66.2977H128.029C129.868 66.2977 131.443 64.8088 131.487 62.9258V41.3813C131.487 31.7476 139.322 23.953 148.908 23.953H152.979C154.861 23.953 156.436 22.4203 156.436 20.4936V17.078Z" fill="#545456"/>
<path d="M108.638 45.5413C107.851 49.3948 105.706 52.9418 102.554 55.5692C101.766 56.226 100.979 56.7515 100.191 57.2332C99.0527 57.8462 98.3086 58.2403 97.5645 58.5031C97.3456 58.5906 97.083 58.6782 96.8641 58.722L96.1638 58.941C95.6823 59.1161 95.1571 59.2475 94.6318 59.3351C93.4938 59.554 92.4433 59.6854 91.349 59.6854C90.2985 59.6854 89.1605 59.554 88.0662 59.3351C87.4972 59.2475 86.972 59.0723 86.4467 58.8972L85.8339 58.722C85.5713 58.6344 85.3525 58.5906 85.0898 58.5031C84.3457 58.2403 83.6016 57.8462 82.7262 57.3645C81.632 56.7515 80.8878 56.1822 80.1 55.5692C76.9485 52.9418 74.8037 49.351 74.0159 45.4975C73.8408 44.4903 73.7095 43.4394 73.7095 42.3009L73.6657 41.9943C73.6657 32.2292 81.5882 24.3033 91.349 24.3033C95.551 24.3033 99.6655 25.8797 102.948 28.726L103.298 29.0326C103.649 29.3829 103.999 29.7332 104.349 30.0835C104.874 30.6528 105.399 31.2659 105.837 31.8789C106.537 32.8423 107.019 33.7181 107.457 34.769C107.544 34.988 107.632 35.1631 107.675 35.3821L107.763 35.6448C108.026 36.3455 108.245 37.0899 108.463 37.8343C108.595 38.316 108.638 38.5349 108.682 38.7539C108.901 39.9362 108.989 40.9872 108.989 41.9505C108.989 43.0891 108.857 44.2714 108.638 45.4537V45.5413ZM112.665 67.0421H116.167V42.2571C116.167 28.3757 105.049 17.2094 91.349 17.2094C77.6488 17.2094 66.4873 28.3757 66.4873 42.0381C66.4873 55.7443 77.6488 66.9107 91.349 66.9107C97.1268 66.9107 102.773 64.8526 107.238 61.1742L109.164 59.5978V63.5389C109.164 65.4656 110.739 67.0421 112.665 67.0421Z" fill="#545456"/>
<path d="M244.591 45.5413C243.803 49.3948 241.658 52.9418 238.507 55.5692C237.719 56.226 236.931 56.7515 236.143 57.2332C235.005 57.8462 234.261 58.2403 233.517 58.5031C233.298 58.5906 233.079 58.6782 232.816 58.722L232.116 58.941C231.635 59.1161 231.109 59.2475 230.584 59.3351C229.446 59.554 228.396 59.6854 227.301 59.6854C226.251 59.6854 225.157 59.554 224.019 59.3351C223.493 59.2475 222.968 59.0723 222.443 58.8972L221.83 58.722C221.611 58.6344 221.349 58.5906 221.086 58.5031C220.342 58.2403 219.598 57.8462 218.722 57.3645C217.628 56.7515 216.884 56.1822 216.096 55.5692C212.945 52.9418 210.8 49.351 210.012 45.4975C209.837 44.4903 209.706 43.4394 209.706 42.3009L209.662 41.9943C209.662 32.2292 217.584 24.3033 227.345 24.3033C231.547 24.3033 235.662 25.8797 238.944 28.726L239.295 29.0326C239.645 29.3829 239.995 29.7332 240.345 30.0835C240.87 30.6528 241.396 31.2659 241.833 31.8789C242.49 32.8423 242.971 33.7181 243.453 34.769C243.54 34.988 243.628 35.1631 243.672 35.3821L243.759 35.6448C244.022 36.3455 244.241 37.0899 244.459 37.8343C244.591 38.316 244.635 38.5349 244.678 38.7539C244.897 39.9362 244.985 40.9872 244.985 41.9505C244.985 43.0891 244.853 44.2714 244.635 45.4537L244.591 45.5413ZM248.618 67.0421H252.119V42.2571C252.119 28.3757 241.002 17.2094 227.301 17.2094C213.601 17.2094 202.483 28.3757 202.483 42.0381C202.483 55.7443 213.645 66.9107 227.301 66.9107C233.079 66.9107 238.725 64.8526 243.19 61.1742L245.116 59.5978V63.5389C245.116 65.4656 246.692 67.0421 248.618 67.0421Z" fill="#545456"/>
<path d="M302.411 45.5413C301.623 49.3948 299.478 52.9417 296.327 55.5691C295.539 56.226 294.751 56.7514 293.963 57.2331C292.825 57.8462 292.081 58.2403 291.337 58.503C291.118 58.5906 290.899 58.6782 290.637 58.722L289.936 58.9409C289.455 59.1161 288.93 59.2474 288.404 59.335C287.266 59.554 286.216 59.6853 285.122 59.6853C284.071 59.6853 282.977 59.554 281.839 59.335C281.314 59.2474 280.788 59.0723 280.219 58.8971L279.607 58.722C279.344 58.6344 279.125 58.5906 278.862 58.503C278.118 58.2403 277.374 57.8462 276.499 57.3645C275.405 56.7514 274.66 56.1822 273.873 55.5691C270.721 52.9417 268.576 49.351 267.788 45.4975C267.57 44.4903 267.482 43.4394 267.438 42.3008L267.395 41.9943C267.395 32.2292 275.317 24.3032 285.078 24.3032C289.28 24.3032 293.394 25.8797 296.677 28.726L297.027 29.0325C297.421 29.3828 297.771 29.7332 298.078 30.0835C298.603 30.6528 299.128 31.2658 299.566 31.8789C300.266 32.8422 300.704 33.718 301.185 34.769C301.273 34.9879 301.361 35.1631 301.404 35.382L301.492 35.6448C301.755 36.3454 301.973 37.0898 302.148 37.8343C302.28 38.316 302.324 38.5349 302.367 38.7539C302.586 39.9362 302.674 40.9871 302.674 41.9505C302.674 43.089 302.542 44.2714 302.324 45.4537L302.411 45.5413ZM306.438 67.042H309.94V42.257C309.94 41.2061 309.896 40.3741 309.808 39.4983V2.23322H306.35C304.425 2.23322 302.893 3.80965 302.893 5.78018V24.5222L300.967 22.9458C296.546 19.2674 290.899 17.2531 285.122 17.2531C271.421 17.2531 260.304 28.4195 260.304 42.0819C260.304 55.7881 271.421 66.9544 285.122 66.9544C290.899 66.9544 296.546 64.8963 301.01 61.218L302.936 59.6416V63.5826C302.936 65.5094 304.512 67.0858 306.438 67.0858V67.042Z" fill="#545456"/>
<path d="M376.47 45.5413C375.683 49.3948 373.538 52.9418 370.386 55.5692C369.598 56.226 368.811 56.7515 368.023 57.2332C366.885 57.8462 366.141 58.2403 365.396 58.5031C365.178 58.5906 364.959 58.6782 364.696 58.722L363.996 58.941C363.514 59.1161 362.989 59.2475 362.464 59.3351C361.326 59.554 360.275 59.6854 359.181 59.6854C358.131 59.6854 356.993 59.554 355.898 59.3351C355.373 59.2475 354.848 59.0723 354.323 58.8972L353.71 58.722C353.447 58.6344 353.228 58.5906 352.966 58.5031C352.222 58.2403 351.477 57.8462 350.602 57.3645C349.508 56.7515 348.764 56.1822 347.976 55.5692C344.824 52.9418 342.68 49.351 341.892 45.4975C341.717 44.4903 341.585 43.4394 341.585 42.3009V41.9943C341.585 32.2292 349.508 24.3033 359.269 24.3033C363.471 24.3033 367.585 25.8797 370.868 28.726L371.218 29.0326C371.612 29.3829 371.918 29.7332 372.268 30.0835C372.794 30.6528 373.319 31.2659 373.757 31.8789C374.413 32.8423 374.895 33.7181 375.376 34.769C375.464 34.988 375.551 35.1631 375.595 35.3821L375.683 35.6448C375.945 36.3455 376.164 37.0899 376.383 37.8343C376.514 38.316 376.558 38.5349 376.602 38.7539C376.821 39.9362 376.908 40.9872 376.908 41.9505C376.908 43.0891 376.777 44.2714 376.558 45.4537L376.47 45.5413ZM380.454 67.0421H383.955V42.2571C383.955 28.3757 372.794 17.2094 359.137 17.2094C345.437 17.2094 334.319 28.3757 334.319 42.0381C334.319 55.7443 345.437 66.9107 359.137 66.9107C364.915 66.9107 370.561 64.8526 375.026 61.1742L376.952 59.5978V63.5389C376.952 65.4656 378.528 67.0421 380.454 67.0421Z" fill="#545456"/>
<path d="M207.473 82.281L206.466 83.332C205.635 82.5438 204.803 82.1059 204.059 82.1059C203.534 82.1059 203.14 82.281 202.746 82.5876C202.396 82.9379 202.221 83.2882 202.221 83.7699C202.221 84.164 202.352 84.5143 202.658 84.9084C202.965 85.2587 203.578 85.6966 204.497 86.1783C205.635 86.7914 206.423 87.3607 206.86 87.8861C207.254 88.4554 207.473 89.0685 207.473 89.7691C207.473 90.7762 207.123 91.6083 206.423 92.2651C205.722 92.9657 204.847 93.3161 203.796 93.3161C203.096 93.3161 202.44 93.1847 201.827 92.8782C201.214 92.5716 200.645 92.1775 200.251 91.6083L201.214 90.5135C202.002 91.3893 202.833 91.871 203.753 91.871C204.365 91.871 204.891 91.652 205.328 91.2579C205.766 90.8638 205.985 90.3821 205.985 89.8567C205.985 89.4188 205.854 89.0247 205.547 88.6743C205.285 88.324 204.628 87.8861 203.621 87.4044C202.527 86.8352 201.783 86.3097 201.389 85.7404C200.995 85.215 200.82 84.5581 200.82 83.8575C200.82 82.9379 201.126 82.1935 201.739 81.5804C202.352 80.9674 203.14 80.6608 204.103 80.6608C205.197 80.6608 206.335 81.1863 207.473 82.281Z" fill="#545456"/>
<path d="M215.921 82.1935C214.608 82.1935 213.514 82.6752 212.595 83.6385C211.675 84.6019 211.194 85.7404 211.194 87.0979C211.194 87.9737 211.413 88.7619 211.85 89.5501C212.244 90.2946 212.857 90.8638 213.558 91.3017C214.258 91.6958 215.089 91.9148 215.921 91.9148C216.797 91.9148 217.584 91.6958 218.285 91.3017C218.985 90.9076 219.598 90.2946 219.992 89.5501C220.43 88.8057 220.648 87.9737 220.648 87.0979C220.648 85.7404 220.167 84.6019 219.248 83.6385C218.329 82.6752 217.234 82.1935 215.921 82.1935ZM215.921 80.6608C217.76 80.6608 219.335 81.3177 220.517 82.6752C221.611 83.9013 222.18 85.3463 222.18 87.0103C222.18 88.6743 221.611 90.1632 220.43 91.4331C219.248 92.703 217.76 93.3161 215.921 93.3161C214.083 93.3161 212.551 92.703 211.369 91.4331C210.187 90.1632 209.618 88.7181 209.618 87.0103C209.618 85.3463 210.187 83.9013 211.281 82.6752C212.507 81.3177 214.039 80.6608 215.921 80.6608Z" fill="#545456"/>
<path d="M230.059 76.3255V77.8581C229.49 77.5954 229.009 77.5078 228.615 77.5078C228.308 77.5078 228.046 77.5516 227.871 77.683C227.695 77.8143 227.564 77.9457 227.52 78.1209C227.477 78.296 227.433 78.6901 227.433 79.3908V81.011H229.971V82.3685H227.433V93.0969H225.901V82.3685H224.325V81.011H225.901V79.128C225.901 78.2522 225.988 77.6392 226.12 77.2889C226.295 76.9385 226.557 76.632 226.951 76.4131C227.345 76.1941 227.783 76.0627 228.352 76.0627C228.833 76.0627 229.446 76.1503 230.147 76.3693L230.059 76.3255Z" fill="#545456"/>
<path d="M233.56 76.5006H235.136V80.9672H237.587V82.3246H235.136V93.0531H233.56V82.3246H231.459V80.9672H233.56V76.5006Z" fill="#545456"/>
<path d="M238.289 80.967H239.865L243.585 89.725L247.437 80.967H247.7L251.552 89.725L255.36 80.967H256.935L251.727 93.053H251.42L247.568 84.3826L243.717 93.053H243.454L238.289 80.967Z" fill="#545456"/>
<path d="M264.594 82.1498C263.718 82.1498 262.931 82.3687 262.186 82.8066C261.442 83.2445 260.873 83.8138 260.436 84.602C259.998 85.3902 259.779 86.1784 259.779 87.0542C259.779 87.8862 259.998 88.7182 260.436 89.5065C260.873 90.2947 261.442 90.8639 262.186 91.3018C262.931 91.7397 263.718 91.9587 264.55 91.9587C265.382 91.9587 266.213 91.7397 266.957 91.3018C267.702 90.8639 268.314 90.2947 268.708 89.5502C269.102 88.8058 269.321 87.9738 269.321 87.098C269.321 85.6967 268.883 84.5582 267.964 83.5948C267.045 82.6753 265.907 82.1936 264.55 82.1936L264.594 82.1498ZM270.809 80.9675V93.0096H269.277V90.9515C268.621 91.7397 267.877 92.3528 267.089 92.7469C266.257 93.141 265.382 93.36 264.419 93.36C262.712 93.36 261.267 92.7469 260.042 91.5208C258.86 90.2947 258.247 88.762 258.247 87.0104C258.247 85.2588 258.86 83.77 260.085 82.5439C261.311 81.3178 262.755 80.7047 264.506 80.7047C265.513 80.7047 266.388 80.9237 267.176 81.3178C267.964 81.7557 268.664 82.3687 269.277 83.2007V80.9675H270.809Z" fill="#545456"/>
<path d="M273.698 80.9668H275.274V82.7184C275.755 82.0178 276.237 81.4923 276.762 81.142C277.287 80.7917 277.813 80.6165 278.425 80.6165C278.863 80.6165 279.301 80.7479 279.782 81.0106L278.994 82.3243C278.688 82.1929 278.382 82.1054 278.163 82.1054C277.638 82.1054 277.156 82.3243 276.675 82.7622C276.193 83.2001 275.843 83.857 275.58 84.7328C275.405 85.4334 275.318 86.7909 275.318 88.8928V92.9652H273.742V80.923L273.698 80.9668Z" fill="#545456"/>
<path d="M291.25 85.7843C291.031 84.9523 290.725 84.2955 290.331 83.8138C289.937 83.3321 289.412 82.938 288.755 82.6315C288.099 82.3249 287.398 82.1936 286.698 82.1936C285.516 82.1936 284.509 82.5877 283.634 83.3321C283.021 83.9014 282.54 84.7334 282.233 85.8281H291.206L291.25 85.7843ZM291.25 89.0248L292.563 89.7254C292.126 90.5574 291.644 91.258 291.075 91.7835C290.506 92.309 289.849 92.7031 289.193 92.9658C288.493 93.2286 287.705 93.36 286.786 93.36C284.816 93.36 283.284 92.7031 282.19 91.4332C281.052 90.1633 280.526 88.6744 280.526 87.0542C280.526 85.5216 281.008 84.1641 281.927 82.9818C283.109 81.4491 284.728 80.7047 286.698 80.7047C288.755 80.7047 290.375 81.4929 291.6 83.0256C292.476 84.1203 292.913 85.5216 292.957 87.1418H282.102C282.146 88.5431 282.584 89.6816 283.459 90.6012C284.334 91.477 285.385 91.9587 286.698 91.9587C287.311 91.9587 287.924 91.8711 288.493 91.6522C289.062 91.4332 289.587 91.1705 289.981 90.8201C290.375 90.4698 290.812 89.9006 291.294 89.1123L291.25 89.0248Z" fill="#545456"/>
<path d="M313.837 83.4629L312.611 84.2073C311.561 82.806 310.073 82.1054 308.234 82.1054C306.746 82.1054 305.564 82.5871 304.601 83.5066C303.638 84.47 303.157 85.6086 303.157 86.966C303.157 87.8418 303.376 88.6738 303.813 89.4621C304.251 90.2503 304.864 90.8195 305.652 91.2574C306.44 91.6953 307.315 91.9143 308.278 91.9143C310.029 91.9143 311.473 91.2136 312.611 89.8124L313.837 90.6006C313.268 91.4764 312.48 92.1332 311.517 92.6149C310.554 93.0966 309.46 93.3156 308.19 93.3156C306.308 93.3156 304.733 92.7025 303.463 91.4764C302.194 90.2503 301.581 88.8052 301.581 87.0536C301.581 85.8713 301.844 84.8203 302.456 83.8132C303.025 82.806 303.857 82.0178 304.864 81.4485C305.914 80.8793 307.052 80.6165 308.322 80.6165C309.11 80.6165 309.897 80.7479 310.642 80.9668C311.386 81.2296 311.998 81.5361 312.524 81.9302C313.049 82.3243 313.487 82.806 313.837 83.4191V83.4629Z" fill="#545456"/>
<path d="M322.503 82.1935C321.234 82.1935 320.096 82.6752 319.177 83.6385C318.258 84.6019 317.776 85.7404 317.776 87.0979C317.776 87.9737 317.995 88.7619 318.433 89.5501C318.87 90.2946 319.439 90.8638 320.14 91.3017C320.884 91.6958 321.672 91.9148 322.503 91.9148C323.379 91.9148 324.167 91.6958 324.867 91.3017C325.567 90.9076 326.18 90.2946 326.574 89.5501C327.012 88.8057 327.231 87.9737 327.231 87.0979C327.231 85.7404 326.749 84.6019 325.83 83.6385C324.911 82.6752 323.816 82.1935 322.503 82.1935ZM322.503 80.6608C324.342 80.6608 325.917 81.3177 327.143 82.6752C328.237 83.9013 328.806 85.3463 328.806 87.0103C328.806 88.6743 328.237 90.1632 327.055 91.4331C325.874 92.703 324.385 93.3161 322.547 93.3161C320.709 93.3161 319.177 92.703 317.995 91.4331C316.813 90.1632 316.244 88.7181 316.244 87.0103C316.244 85.3463 316.813 83.9013 317.907 82.6752C319.133 81.3177 320.665 80.6608 322.547 80.6608H322.503Z" fill="#545456"/>
<path d="M331.475 80.9671H333.05V86.616C333.05 87.9735 333.094 88.9369 333.269 89.4624C333.488 90.2068 333.926 90.7761 334.539 91.214C335.151 91.6519 335.895 91.8708 336.771 91.8708C337.646 91.8708 338.39 91.6519 338.959 91.2577C339.572 90.8198 339.966 90.2944 340.229 89.5937C340.36 89.112 340.448 88.1487 340.448 86.616V80.9671H342.023V86.8788C342.023 88.5428 341.848 89.8127 341.454 90.6447C341.06 91.4767 340.491 92.1335 339.703 92.6152C338.916 93.0969 337.953 93.3159 336.771 93.3159C335.589 93.3159 334.626 93.0969 333.838 92.6152C333.05 92.1335 332.481 91.4767 332.087 90.6009C331.693 89.7251 331.518 88.4552 331.518 86.7474V80.9233L331.475 80.9671Z" fill="#545456"/>
<path d="M345.482 80.9674H347.058V83.1131C347.671 82.281 348.371 81.668 349.115 81.2739C349.859 80.8798 350.691 80.6608 351.566 80.6608C352.442 80.6608 353.273 80.8798 353.974 81.3615C354.674 81.7994 355.199 82.4562 355.506 83.2006C355.856 83.9888 355.987 85.1712 355.987 86.8352V93.0533H354.411V87.3169C354.411 85.9156 354.368 84.996 354.236 84.5143C354.061 83.7261 353.711 83.1131 353.186 82.7189C352.704 82.3248 352.004 82.1059 351.216 82.1059C350.253 82.1059 349.421 82.4124 348.677 83.0255C347.933 83.6385 347.452 84.4267 347.189 85.3463C347.058 85.9594 346.97 87.0541 346.97 88.6306V93.0533H345.395V81.0111L345.482 80.9674Z" fill="#545456"/>
<path d="M360.67 76.5006H362.202V80.9672H364.653V82.3246H362.202V93.0531H360.67V82.3246H358.525V80.9672H360.67V76.5006Z" fill="#545456"/>
<path d="M366.404 80.9668H367.98V82.7184C368.461 82.0178 368.943 81.4923 369.512 81.142C370.037 80.7917 370.562 80.6165 371.131 80.6165C371.569 80.6165 372.007 80.7479 372.488 81.0106L371.7 82.3243C371.394 82.1929 371.088 82.1054 370.869 82.1054C370.344 82.1054 369.862 82.3243 369.381 82.7622C368.899 83.2001 368.549 83.857 368.286 84.7328C368.111 85.4334 367.98 86.7909 367.98 88.8928V92.9652H366.404V80.923V80.9668Z" fill="#545456"/>
<path d="M372.532 80.967H374.152L378.31 90.2505L382.337 80.967H384L376.778 97.432H375.158L377.478 92.1334L372.532 80.967Z" fill="#545456"/>
</svg>
