<svg width="401" height="95" viewBox="0 0 401 95" fill="none" xmlns="http://www.w3.org/2000/svg">
<rect width="401" height="95" rx="10" fill="#333333"/>
<path d="M87.7489 44.2237C87.6807 37.2583 93.3298 33.9178 93.5822 33.7519C90.4081 29.0242 85.4635 28.3766 83.7016 28.3017C79.4936 27.8681 75.4908 30.8233 73.3552 30.8233C71.225 30.8233 67.9295 28.3658 64.4396 28.4304C59.8531 28.4998 55.624 31.1448 53.2624 35.3258C48.4971 43.7423 52.042 56.2108 56.6866 63.0367C58.9561 66.3779 61.6624 70.1306 65.2156 69.9965C68.6373 69.8575 69.9312 67.7429 74.068 67.7429C78.2047 67.7429 79.3677 69.9965 82.9886 69.9273C86.6707 69.8577 89.0035 66.5222 91.2574 63.1707C93.8635 59.2945 94.9367 55.5417 95 55.3491C94.9182 55.3111 87.82 52.5434 87.7489 44.2237ZM80.945 23.7829C82.8309 21.4541 84.1038 18.2232 83.7566 15C81.0401 15.1126 77.7473 16.8417 75.7983 19.1653C74.0496 21.2265 72.5187 24.5163 72.9289 27.675C75.9615 27.9159 79.0571 26.1064 80.945 23.7829Z" fill="white"/>
<path d="M118.314 57V35.5254H125.712C127.382 35.5254 128.656 35.6279 129.535 35.833C130.766 36.1162 131.815 36.6289 132.685 37.3711C133.817 38.3281 134.662 39.5537 135.219 41.0479C135.785 42.5322 136.068 44.2314 136.068 46.1455C136.068 47.7764 135.878 49.2217 135.497 50.4814C135.116 51.7412 134.628 52.7861 134.032 53.6162C133.437 54.4365 132.782 55.0859 132.069 55.5645C131.366 56.0332 130.512 56.3896 129.506 56.6338C128.51 56.8779 127.362 57 126.063 57H118.314ZM121.156 54.4658H125.741C127.157 54.4658 128.266 54.334 129.066 54.0703C129.877 53.8066 130.521 53.4355 131 52.957C131.674 52.2832 132.196 51.3799 132.567 50.2471C132.948 49.1045 133.139 47.7227 133.139 46.1016C133.139 43.8555 132.768 42.1318 132.025 40.9307C131.293 39.7197 130.399 38.9092 129.345 38.499C128.583 38.2061 127.357 38.0596 125.668 38.0596H121.156V54.4658ZM138.676 49.2217C138.676 46.3408 139.477 44.207 141.078 42.8203C142.416 41.668 144.047 41.0918 145.971 41.0918C148.109 41.0918 149.857 41.7949 151.215 43.2012C152.572 44.5977 153.251 46.5312 153.251 49.002C153.251 51.0039 152.948 52.5811 152.343 53.7334C151.747 54.876 150.873 55.7646 149.721 56.3994C148.578 57.0342 147.328 57.3516 145.971 57.3516C143.793 57.3516 142.03 56.6533 140.683 55.2568C139.345 53.8604 138.676 51.8486 138.676 49.2217ZM141.386 49.2217C141.386 51.2139 141.82 52.708 142.689 53.7041C143.559 54.6904 144.652 55.1836 145.971 55.1836C147.279 55.1836 148.368 54.6855 149.237 53.6895C150.106 52.6934 150.541 51.1748 150.541 49.1338C150.541 47.21 150.102 45.7549 149.223 44.7686C148.354 43.7725 147.27 43.2744 145.971 43.2744C144.652 43.2744 143.559 43.7676 142.689 44.7539C141.82 45.7402 141.386 47.2295 141.386 49.2217ZM159.228 57L154.467 41.4434H157.191L159.667 50.4229L160.59 53.7627C160.629 53.5967 160.897 52.5273 161.396 50.5547L163.871 41.4434H166.581L168.91 50.4668L169.687 53.4404L170.58 50.4375L173.246 41.4434H175.81L170.946 57H168.207L165.731 47.6836L165.131 45.0322L161.981 57H159.228ZM178.036 57V41.4434H180.409V43.6553C181.552 41.9463 183.202 41.0918 185.36 41.0918C186.298 41.0918 187.157 41.2627 187.938 41.6045C188.729 41.9365 189.32 42.376 189.711 42.9229C190.102 43.4697 190.375 44.1191 190.531 44.8711C190.629 45.3594 190.678 46.2139 190.678 47.4346V57H188.041V47.5371C188.041 46.4629 187.938 45.6621 187.733 45.1348C187.528 44.5977 187.162 44.1729 186.635 43.8604C186.117 43.5381 185.507 43.377 184.804 43.377C183.681 43.377 182.709 43.7334 181.889 44.4463C181.078 45.1592 180.673 46.5117 180.673 48.5039V57H178.036ZM194.677 57V35.5254H197.313V57H194.677ZM200.434 49.2217C200.434 46.3408 201.234 44.207 202.836 42.8203C204.174 41.668 205.805 41.0918 207.729 41.0918C209.867 41.0918 211.615 41.7949 212.973 43.2012C214.33 44.5977 215.009 46.5312 215.009 49.002C215.009 51.0039 214.706 52.5811 214.101 53.7334C213.505 54.876 212.631 55.7646 211.479 56.3994C210.336 57.0342 209.086 57.3516 207.729 57.3516C205.551 57.3516 203.788 56.6533 202.44 55.2568C201.103 53.8604 200.434 51.8486 200.434 49.2217ZM203.144 49.2217C203.144 51.2139 203.578 52.708 204.447 53.7041C205.316 54.6904 206.41 55.1836 207.729 55.1836C209.037 55.1836 210.126 54.6855 210.995 53.6895C211.864 52.6934 212.299 51.1748 212.299 49.1338C212.299 47.21 211.859 45.7549 210.98 44.7686C210.111 43.7725 209.027 43.2744 207.729 43.2744C206.41 43.2744 205.316 43.7676 204.447 44.7539C203.578 45.7402 203.144 47.2295 203.144 49.2217ZM228.266 55.0811C227.289 55.9111 226.347 56.4971 225.438 56.8389C224.54 57.1807 223.573 57.3516 222.538 57.3516C220.829 57.3516 219.516 56.9365 218.598 56.1064C217.68 55.2666 217.221 54.1973 217.221 52.8984C217.221 52.1367 217.392 51.4434 217.733 50.8184C218.085 50.1836 218.539 49.6758 219.096 49.2949C219.662 48.9141 220.297 48.626 221 48.4307C221.518 48.2939 222.299 48.1621 223.344 48.0352C225.473 47.7812 227.04 47.4785 228.046 47.127C228.056 46.7656 228.061 46.5361 228.061 46.4385C228.061 45.3643 227.812 44.6074 227.313 44.168C226.64 43.5723 225.639 43.2744 224.311 43.2744C223.07 43.2744 222.152 43.4941 221.557 43.9336C220.971 44.3633 220.536 45.1299 220.253 46.2334L217.675 45.8818C217.909 44.7783 218.295 43.8896 218.832 43.2158C219.369 42.5322 220.146 42.0098 221.161 41.6484C222.177 41.2773 223.354 41.0918 224.691 41.0918C226.02 41.0918 227.099 41.248 227.929 41.5605C228.759 41.873 229.369 42.2686 229.76 42.7471C230.15 43.2158 230.424 43.8115 230.58 44.5342C230.668 44.9834 230.712 45.7939 230.712 46.9658V50.4814C230.712 52.9326 230.766 54.4854 230.873 55.1396C230.99 55.7842 231.215 56.4043 231.547 57H228.793C228.52 56.4531 228.344 55.8135 228.266 55.0811ZM228.046 49.1924C227.089 49.583 225.653 49.915 223.739 50.1885C222.655 50.3447 221.889 50.5205 221.439 50.7158C220.99 50.9111 220.644 51.1992 220.399 51.5801C220.155 51.9512 220.033 52.3662 220.033 52.8252C220.033 53.5283 220.297 54.1143 220.824 54.583C221.361 55.0518 222.143 55.2861 223.168 55.2861C224.184 55.2861 225.087 55.0664 225.878 54.627C226.669 54.1777 227.25 53.5674 227.621 52.7959C227.904 52.2002 228.046 51.3213 228.046 50.1592V49.1924ZM244.906 57V55.0371C243.92 56.5801 242.47 57.3516 240.556 57.3516C239.315 57.3516 238.173 57.0098 237.128 56.3262C236.093 55.6426 235.287 54.6904 234.711 53.4697C234.145 52.2393 233.861 50.8281 233.861 49.2363C233.861 47.6836 234.12 46.2773 234.638 45.0176C235.155 43.748 235.932 42.7764 236.967 42.1025C238.002 41.4287 239.159 41.0918 240.438 41.0918C241.376 41.0918 242.211 41.292 242.943 41.6924C243.676 42.083 244.271 42.5957 244.73 43.2305V35.5254H247.353V57H244.906ZM236.571 49.2363C236.571 51.2285 236.991 52.7178 237.831 53.7041C238.671 54.6904 239.662 55.1836 240.805 55.1836C241.957 55.1836 242.934 54.7148 243.734 53.7773C244.545 52.8301 244.95 51.3896 244.95 49.4561C244.95 47.3271 244.54 45.7646 243.72 44.7686C242.899 43.7725 241.889 43.2744 240.688 43.2744C239.516 43.2744 238.534 43.7529 237.743 44.71C236.962 45.667 236.571 47.1758 236.571 49.2363ZM260.492 57V43.4941H258.163V41.4434H260.492V39.7881C260.492 38.7432 260.585 37.9668 260.771 37.459C261.024 36.7754 261.469 36.2236 262.104 35.8037C262.748 35.374 263.646 35.1592 264.799 35.1592C265.541 35.1592 266.361 35.2471 267.26 35.4229L266.864 37.7227C266.317 37.625 265.8 37.5762 265.312 37.5762C264.511 37.5762 263.944 37.7471 263.612 38.0889C263.28 38.4307 263.114 39.0703 263.114 40.0078V41.4434H266.146V43.4941H263.114V57H260.492ZM267.23 49.2217C267.23 46.3408 268.031 44.207 269.633 42.8203C270.971 41.668 272.602 41.0918 274.525 41.0918C276.664 41.0918 278.412 41.7949 279.77 43.2012C281.127 44.5977 281.806 46.5312 281.806 49.002C281.806 51.0039 281.503 52.5811 280.897 53.7334C280.302 54.876 279.428 55.7646 278.275 56.3994C277.133 57.0342 275.883 57.3516 274.525 57.3516C272.348 57.3516 270.585 56.6533 269.237 55.2568C267.899 53.8604 267.23 51.8486 267.23 49.2217ZM269.94 49.2217C269.94 51.2139 270.375 52.708 271.244 53.7041C272.113 54.6904 273.207 55.1836 274.525 55.1836C275.834 55.1836 276.923 54.6855 277.792 53.6895C278.661 52.6934 279.096 51.1748 279.096 49.1338C279.096 47.21 278.656 45.7549 277.777 44.7686C276.908 43.7725 275.824 43.2744 274.525 43.2744C273.207 43.2744 272.113 43.7676 271.244 44.7539C270.375 45.7402 269.94 47.2295 269.94 49.2217ZM284.882 57V41.4434H287.255V43.8018C287.86 42.6982 288.417 41.9707 288.925 41.6191C289.442 41.2676 290.009 41.0918 290.624 41.0918C291.513 41.0918 292.416 41.375 293.334 41.9414L292.426 44.3877C291.781 44.0068 291.137 43.8164 290.492 43.8164C289.916 43.8164 289.398 43.9922 288.939 44.3438C288.48 44.6855 288.153 45.1641 287.958 45.7793C287.665 46.7168 287.519 47.7422 287.519 48.8555V57H284.882ZM303.266 38.5576V35.5254H305.902V38.5576H303.266ZM303.266 57V41.4434H305.902V57H303.266ZM309.403 46.541C309.403 42.9766 310.36 40.1885 312.274 38.1768C314.188 36.1553 316.659 35.1445 319.687 35.1445C321.669 35.1445 323.456 35.6182 325.048 36.5654C326.64 37.5127 327.851 38.8359 328.681 40.5352C329.521 42.2246 329.94 44.1436 329.94 46.292C329.94 48.4697 329.501 50.418 328.622 52.1367C327.743 53.8555 326.498 55.1592 324.887 56.0479C323.275 56.9268 321.537 57.3662 319.672 57.3662C317.65 57.3662 315.844 56.8779 314.252 55.9014C312.66 54.9248 311.454 53.5918 310.634 51.9023C309.813 50.2129 309.403 48.4258 309.403 46.541ZM312.333 46.585C312.333 49.1729 313.026 51.2139 314.413 52.708C315.81 54.1924 317.558 54.9346 319.657 54.9346C321.796 54.9346 323.554 54.1826 324.931 52.6787C326.317 51.1748 327.011 49.041 327.011 46.2773C327.011 44.5293 326.713 43.0059 326.117 41.707C325.531 40.3984 324.667 39.3877 323.524 38.6748C322.392 37.9521 321.117 37.5908 319.701 37.5908C317.689 37.5908 315.956 38.2842 314.501 39.6709C313.056 41.0479 312.333 43.3525 312.333 46.585ZM332.65 50.1006L335.331 49.8662C335.458 50.9404 335.751 51.8242 336.21 52.5176C336.679 53.2012 337.401 53.7578 338.378 54.1875C339.354 54.6074 340.453 54.8174 341.674 54.8174C342.758 54.8174 343.715 54.6562 344.545 54.334C345.375 54.0117 345.99 53.5723 346.391 53.0156C346.801 52.4492 347.006 51.834 347.006 51.1699C347.006 50.4961 346.811 49.9102 346.42 49.4121C346.029 48.9043 345.385 48.4795 344.486 48.1377C343.91 47.9131 342.636 47.5664 340.663 47.0977C338.69 46.6191 337.309 46.1699 336.518 45.75C335.492 45.2129 334.726 44.5488 334.218 43.7578C333.72 42.957 333.471 42.0635 333.471 41.0771C333.471 39.9932 333.778 38.9824 334.394 38.0449C335.009 37.0977 335.907 36.3799 337.089 35.8916C338.271 35.4033 339.584 35.1592 341.029 35.1592C342.621 35.1592 344.022 35.418 345.233 35.9355C346.454 36.4434 347.392 37.1953 348.046 38.1914C348.7 39.1875 349.052 40.3154 349.101 41.5752L346.376 41.7803C346.229 40.4229 345.731 39.3975 344.882 38.7041C344.042 38.0107 342.797 37.6641 341.146 37.6641C339.428 37.6641 338.173 37.9814 337.382 38.6162C336.601 39.2412 336.21 39.998 336.21 40.8867C336.21 41.6582 336.488 42.293 337.045 42.791C337.592 43.2891 339.018 43.8018 341.322 44.3291C343.637 44.8467 345.224 45.3008 346.083 45.6914C347.333 46.2676 348.256 47 348.852 47.8887C349.447 48.7676 349.745 49.7832 349.745 50.9355C349.745 52.0781 349.418 53.1572 348.764 54.1729C348.109 55.1787 347.167 55.9648 345.937 56.5312C344.716 57.0879 343.339 57.3662 341.806 57.3662C339.862 57.3662 338.231 57.083 336.913 56.5166C335.604 55.9502 334.574 55.1006 333.822 53.9678C333.08 52.8252 332.689 51.5361 332.65 50.1006Z" fill="white"/>
</svg>
